<svg id="Ebene_1" data-name="Ebene 1" xmlns="http://www.w3.org/2000/svg" width="178" height="43" viewBox="0 0 178.2 42.6"><defs><style>.cls-1{fill:#fff;}.cls-2{fill:#c39052;}.cls-3{fill:#81949c;}</style></defs><title>Zeichenfläche 1</title><path class="cls-1" d="M49.42,17.23a5.38,5.38,0,0,0-1.84-1.48,5.09,5.09,0,0,0-2.18-.46,5.66,5.66,0,0,0-2.35.46A4.52,4.52,0,0,0,41.38,17a5.68,5.68,0,0,0-1,1.89,7.54,7.54,0,0,0-.34,2.3,6.63,6.63,0,0,0,.39,2.3,6.08,6.08,0,0,0,1.09,1.89,4.9,4.9,0,0,0,1.68,1.28,5.18,5.18,0,0,0,2.21.46,4.7,4.7,0,0,0,4-2l2,1.87A6.93,6.93,0,0,1,48.71,29,9.37,9.37,0,0,1,42,29a7.28,7.28,0,0,1-2.6-1.73,8,8,0,0,1-1.67-2.65,9.21,9.21,0,0,1-.6-3.37,9.12,9.12,0,0,1,.6-3.33,7.84,7.84,0,0,1,1.68-2.65,7.69,7.69,0,0,1,2.6-1.75,8.65,8.65,0,0,1,3.35-.63,9.2,9.2,0,0,1,3.35.61,7.33,7.33,0,0,1,2.77,1.9Z"/><path class="cls-1" d="M54.49,3.45h2.65v12h.07a4.22,4.22,0,0,1,.75-.94,5.6,5.6,0,0,1,1.14-.83,7,7,0,0,1,1.48-.61,6.17,6.17,0,0,1,1.73-.24,7,7,0,0,1,2.7.48,5.09,5.09,0,0,1,1.89,1.33A5.38,5.38,0,0,1,68,16.7a9.26,9.26,0,0,1,.36,2.64v9.83H65.71V19.61a5.09,5.09,0,0,0-.88-3.16,3.25,3.25,0,0,0-2.76-1.16,5.17,5.17,0,0,0-2.23.44A4,4,0,0,0,58.32,17a5.64,5.64,0,0,0-.88,1.94,10,10,0,0,0-.29,2.48v7.76H54.49Z"/><path class="cls-1" d="M80.79,15.5h-.07a4,4,0,0,0-3.55,1.58,7.46,7.46,0,0,0-1.11,4.34v7.76H73.4V13.25h2.45v2.62h.07a4.6,4.6,0,0,1,.77-1.12,5.52,5.52,0,0,1,1.17-1,6.26,6.26,0,0,1,1.53-.68,6.35,6.35,0,0,1,1.84-.26,4.52,4.52,0,0,1,.54,0,2.4,2.4,0,0,1,.54.14Z"/><path class="cls-1" d="M83.84,21.21a8.66,8.66,0,0,1,.65-3.4,8,8,0,0,1,1.77-2.64,7.86,7.86,0,0,1,2.69-1.72,9.75,9.75,0,0,1,6.8,0,7.87,7.87,0,0,1,2.69,1.72,8,8,0,0,1,1.77,2.64,8.67,8.67,0,0,1,.65,3.4,8.67,8.67,0,0,1-.65,3.4,8.05,8.05,0,0,1-1.77,2.64A7.86,7.86,0,0,1,95.75,29a9.75,9.75,0,0,1-6.8,0,7.86,7.86,0,0,1-2.69-1.72,8,8,0,0,1-1.77-2.64A8.66,8.66,0,0,1,83.84,21.21Zm2.86,0a6.73,6.73,0,0,0,.39,2.33A5.37,5.37,0,0,0,90,26.67a6.14,6.14,0,0,0,4.66,0,5.37,5.37,0,0,0,2.93-3.13,7.14,7.14,0,0,0,0-4.66,5.38,5.38,0,0,0-2.93-3.13,6.14,6.14,0,0,0-4.66,0,5.38,5.38,0,0,0-2.93,3.13A6.74,6.74,0,0,0,86.7,21.21Z"/><path class="cls-1" d="M105,13.25h2.45v2.62h.07a4.6,4.6,0,0,1,.77-1.12,5.52,5.52,0,0,1,1.17-1A6.26,6.26,0,0,1,111,13.1a6.35,6.35,0,0,1,1.84-.26,7,7,0,0,1,2.7.48,5.09,5.09,0,0,1,1.89,1.33,5.38,5.38,0,0,1,1.11,2.06,9.26,9.26,0,0,1,.36,2.64v9.83h-2.65V19.61a5.09,5.09,0,0,0-.88-3.16,3.25,3.25,0,0,0-2.76-1.16,5.17,5.17,0,0,0-2.23.44A4,4,0,0,0,108.79,17a5.64,5.64,0,0,0-.88,1.94,10,10,0,0,0-.29,2.48v7.76H105V13.25Z"/><path class="cls-1" d="M123,21.21a8.66,8.66,0,0,1,.65-3.4,8,8,0,0,1,1.77-2.64,7.87,7.87,0,0,1,2.69-1.72,9.75,9.75,0,0,1,6.8,0,7.87,7.87,0,0,1,2.69,1.72,8.07,8.07,0,0,1,1.77,2.64,8.67,8.67,0,0,1,.65,3.4,8.67,8.67,0,0,1-.65,3.4,8.08,8.08,0,0,1-1.77,2.64A7.87,7.87,0,0,1,134.87,29a9.75,9.75,0,0,1-6.8,0,7.86,7.86,0,0,1-2.69-1.72,8,8,0,0,1-1.77-2.64A8.66,8.66,0,0,1,123,21.21Zm2.86,0a6.73,6.73,0,0,0,.39,2.33,5.38,5.38,0,0,0,2.93,3.13,6.14,6.14,0,0,0,4.66,0,5.38,5.38,0,0,0,2.92-3.13,7.15,7.15,0,0,0,0-4.66,5.38,5.38,0,0,0-2.92-3.13,6.14,6.14,0,0,0-4.66,0,5.38,5.38,0,0,0-2.93,3.13A6.74,6.74,0,0,0,125.82,21.21Z"/><path class="cls-2" d="M143.27,25.9l9.08-8.84q.85-.82,1.5-1.51a9.84,9.84,0,0,0,1.07-1.36,5.2,5.2,0,0,0,.63-1.38,5.8,5.8,0,0,0,.2-1.6,4.06,4.06,0,0,0-.34-1.7,3.76,3.76,0,0,0-.94-1.28,4.28,4.28,0,0,0-1.39-.82,5,5,0,0,0-1.72-.29,4.4,4.4,0,0,0-3,1.05A4.84,4.84,0,0,0,146.8,11l-3.1-.27a7.52,7.52,0,0,1,.9-2.6,6.23,6.23,0,0,1,1.67-1.89,7.44,7.44,0,0,1,2.26-1.14,9.62,9.62,0,0,1,5.54,0,7.07,7.07,0,0,1,2.33,1.24,5.94,5.94,0,0,1,1.6,2,6.38,6.38,0,0,1,.6,2.82,8,8,0,0,1-.39,2.59,8.66,8.66,0,0,1-1.05,2.13,14.35,14.35,0,0,1-1.5,1.84q-.83.87-1.75,1.72l-7.41,7v.07h12.28v2.65H143.27Z"/><path class="cls-2" d="M174.73,26.52h3.47l-1.66,2.65h-1.81v5.51h-2.86V29.17h-10.2V26l9.56-15.41h3.5Zm-2.86-12.59h-.07l-7.69,12.59h7.76Z"/><polygon class="cls-2" points="21.25 23.31 8.92 11.67 10.98 9.49 21.17 19.11 28.04 12.12 30.18 14.22 21.25 23.31"/><path class="cls-1" d="M21.21,42.42a21.21,21.21,0,1,1,16-35.18l-2.26,2a18.21,18.21,0,1,0,0,24l2.26,2A21.22,21.22,0,0,1,21.21,42.42Z"/><path class="cls-3" d="M43.88,35.95h-2.4V35h5.8v.95h-2.4v6.49h-1Z"/><path class="cls-3" d="M48.12,34.5h.95v3.73h0a1.39,1.39,0,0,1,.62-.65,2,2,0,0,1,1-.25,2.15,2.15,0,0,1,.69.11,1.55,1.55,0,0,1,.58.34,1.66,1.66,0,0,1,.39.59,2.29,2.29,0,0,1,.15.86v3.2h-.95V39.5a1.65,1.65,0,0,0-.09-.59,1.07,1.07,0,0,0-.25-.4.94.94,0,0,0-.36-.22,1.35,1.35,0,0,0-.43-.07,1.55,1.55,0,0,0-.55.09,1.15,1.15,0,0,0-.44.3,1.41,1.41,0,0,0-.29.52,2.38,2.38,0,0,0-.1.75v2.56h-.95Z"/><path class="cls-3" d="M54.67,40.3a1.25,1.25,0,0,0,.14.59,1.47,1.47,0,0,0,.37.46,1.74,1.74,0,0,0,.54.29,1.93,1.93,0,0,0,.63.1,1.41,1.41,0,0,0,.77-.21,2.47,2.47,0,0,0,.6-.54l.72.55a2.63,2.63,0,0,1-2.21,1,2.74,2.74,0,0,1-1.07-.2,2.32,2.32,0,0,1-.81-.55,2.44,2.44,0,0,1-.51-.83,2.94,2.94,0,0,1-.18-1,2.73,2.73,0,0,1,.19-1,2.59,2.59,0,0,1,.54-.83,2.43,2.43,0,0,1,.81-.55,2.62,2.62,0,0,1,1-.2,2.46,2.46,0,0,1,1.12.23,2.22,2.22,0,0,1,.75.6,2.39,2.39,0,0,1,.43.84,3.52,3.52,0,0,1,.13,1v.34Zm3-.76a2,2,0,0,0-.1-.58,1.27,1.27,0,0,0-.27-.46,1.25,1.25,0,0,0-.45-.3,1.63,1.63,0,0,0-.62-.11,1.52,1.52,0,0,0-.64.13,1.57,1.57,0,0,0-.49.34,1.61,1.61,0,0,0-.31.47,1.3,1.3,0,0,0-.11.51Z"/><path class="cls-3" d="M62,35h1.05l1.64,5.95h0L66.48,35h1.16l1.75,5.95h0L71.06,35h1.05l-2.17,7.44H68.87l-1.8-6.07h0l-1.79,6.07H64.19Z"/><path class="cls-3" d="M72.1,39.95a2.54,2.54,0,0,1,.2-1,2.66,2.66,0,0,1,4.89,0,2.54,2.54,0,0,1,.21,1,2.59,2.59,0,0,1-.77,1.85,2.69,2.69,0,0,1-3.76,0,2.58,2.58,0,0,1-.77-1.85Zm1,0a2,2,0,0,0,.11.7,1.56,1.56,0,0,0,.33.55,1.49,1.49,0,0,0,.51.36,1.84,1.84,0,0,0,1.37,0,1.49,1.49,0,0,0,.51-.36,1.56,1.56,0,0,0,.33-.55,2.18,2.18,0,0,0,0-1.4,1.57,1.57,0,0,0-.33-.55,1.52,1.52,0,0,0-.51-.36,1.84,1.84,0,0,0-1.37,0,1.52,1.52,0,0,0-.51.36,1.57,1.57,0,0,0-.33.55A2,2,0,0,0,73.1,39.95Z"/><path class="cls-3" d="M78.58,37.46h.95v.77h0a1.37,1.37,0,0,1,.25-.36,1.67,1.67,0,0,1,.35-.28,1.83,1.83,0,0,1,.43-.18,1.6,1.6,0,0,1,.46-.07,1.33,1.33,0,0,1,.42.06l0,1-.23-.05-.23,0a1.39,1.39,0,0,0-1.06.39,1.71,1.71,0,0,0-.37,1.21v2.5h-.95Z"/><path class="cls-3" d="M82.54,34.5h.95v7.94h-.95Z"/><path class="cls-3" d="M90,42.44H89v-.72h0a1.81,1.81,0,0,1-.75.62,2.33,2.33,0,0,1-1,.22,2.63,2.63,0,0,1-1-.2,2.3,2.3,0,0,1-.8-.56,2.51,2.51,0,0,1-.51-.83,2.87,2.87,0,0,1-.18-1,2.92,2.92,0,0,1,.18-1,2.45,2.45,0,0,1,.51-.83,2.34,2.34,0,0,1,.8-.55,2.63,2.63,0,0,1,1-.2,2.32,2.32,0,0,1,1,.23,1.73,1.73,0,0,1,.73.61h0V34.5H90Zm-2.58-.76a1.7,1.7,0,0,0,.68-.13,1.49,1.49,0,0,0,.51-.36,1.56,1.56,0,0,0,.33-.55,2.18,2.18,0,0,0,0-1.4,1.57,1.57,0,0,0-.33-.55,1.52,1.52,0,0,0-.51-.36,1.84,1.84,0,0,0-1.37,0,1.52,1.52,0,0,0-.51.36,1.57,1.57,0,0,0-.33.55,2.18,2.18,0,0,0,0,1.4,1.56,1.56,0,0,0,.33.55,1.49,1.49,0,0,0,.51.36A1.7,1.7,0,0,0,87.39,41.68Z"/><path class="cls-3" d="M91.35,35h.94v2.58h-.94Z"/><path class="cls-3" d="M97,38.71a1.46,1.46,0,0,0-.42-.35,1.19,1.19,0,0,0-.6-.14,1.14,1.14,0,0,0-.58.14.45.45,0,0,0-.25.41.47.47,0,0,0,.14.36,1.1,1.1,0,0,0,.34.22,1.92,1.92,0,0,0,.42.13l.38.07a4.46,4.46,0,0,1,.57.18,1.57,1.57,0,0,1,.46.27,1.19,1.19,0,0,1,.3.41,1.41,1.41,0,0,1,.11.59,1.38,1.38,0,0,1-.18.72,1.49,1.49,0,0,1-.46.49,2,2,0,0,1-.65.27,3.26,3.26,0,0,1-.73.08,2.88,2.88,0,0,1-1.09-.19,2,2,0,0,1-.84-.69l.72-.59a2.92,2.92,0,0,0,.52.41,1.26,1.26,0,0,0,.69.18,1.85,1.85,0,0,0,.36,0,1.13,1.13,0,0,0,.33-.12.71.71,0,0,0,.23-.2.45.45,0,0,0,.09-.28.48.48,0,0,0-.13-.35,1,1,0,0,0-.32-.22,2.33,2.33,0,0,0-.39-.13l-.36-.08-.58-.17a1.77,1.77,0,0,1-.48-.25,1.16,1.16,0,0,1-.34-.4,1.29,1.29,0,0,1-.13-.6,1.36,1.36,0,0,1,.16-.68,1.45,1.45,0,0,1,.43-.48,2,2,0,0,1,.61-.28,2.58,2.58,0,0,1,.69-.09,2.55,2.55,0,0,1,1,.19,1.53,1.53,0,0,1,.73.63Z"/><path class="cls-3" d="M101.21,35h1.05l1.64,5.95h0L105.68,35h1.16l1.75,5.95h0L110.25,35h1.05l-2.16,7.44h-1.07l-1.8-6.07h0l-1.79,6.07h-1.07Z"/><path class="cls-3" d="M111.55,38.07a2.63,2.63,0,0,1,.92-.55,3.17,3.17,0,0,1,1.05-.18,2.9,2.9,0,0,1,.94.14,1.84,1.84,0,0,1,.65.37,1.44,1.44,0,0,1,.37.53,1.64,1.64,0,0,1,.12.62v2.54c0,.18,0,.34,0,.48s0,.29,0,.42h-.84q0-.38,0-.76h0a1.81,1.81,0,0,1-.75.68,2.35,2.35,0,0,1-1,.2,2.27,2.27,0,0,1-.66-.1,1.61,1.61,0,0,1-.55-.28,1.35,1.35,0,0,1-.37-.47,1.62,1.62,0,0,1,.08-1.46,1.64,1.64,0,0,1,.59-.53,2.84,2.84,0,0,1,.87-.29,6.06,6.06,0,0,1,1.07-.09h.69v-.21a1,1,0,0,0-.07-.38,1,1,0,0,0-.22-.34,1.06,1.06,0,0,0-.37-.24,1.42,1.42,0,0,0-.53-.09,1.94,1.94,0,0,0-.48.05,2.07,2.07,0,0,0-.37.13,1.61,1.61,0,0,0-.3.18l-.26.2Zm2.67,2a6.58,6.58,0,0,0-.69,0,2.71,2.71,0,0,0-.64.14,1.23,1.23,0,0,0-.47.29.67.67,0,0,0-.18.48.68.68,0,0,0,.29.62,1.41,1.41,0,0,0,.78.19,1.51,1.51,0,0,0,.66-.13,1.25,1.25,0,0,0,.44-.34,1.32,1.32,0,0,0,.24-.47,1.84,1.84,0,0,0,.07-.51V40Z"/><path class="cls-3" d="M119.65,38.28H118.3v2.26c0,.14,0,.28,0,.42a1.08,1.08,0,0,0,.08.37.59.59,0,0,0,.21.26.72.72,0,0,0,.42.1l.35,0a1,1,0,0,0,.33-.12v.86a1.25,1.25,0,0,1-.44.13l-.41,0a1.91,1.91,0,0,1-.85-.15,1,1,0,0,1-.44-.39,1.28,1.28,0,0,1-.17-.54c0-.2,0-.4,0-.6v-2.6h-1.09v-.82h1.09v-1.4h.95v1.4h1.36Z"/><path class="cls-3" d="M124.43,38.78a2,2,0,0,0-.55-.41,1.55,1.55,0,0,0-.69-.14,1.53,1.53,0,0,0-.68.14,1.37,1.37,0,0,0-.48.39,1.74,1.74,0,0,0-.29.57,2.22,2.22,0,0,0-.1.67,1.87,1.87,0,0,0,.12.66,1.66,1.66,0,0,0,.33.54,1.49,1.49,0,0,0,.5.36,1.59,1.59,0,0,0,.66.13,1.51,1.51,0,0,0,.68-.14,1.74,1.74,0,0,0,.53-.41l.67.67a2.12,2.12,0,0,1-.86.59,3,3,0,0,1-1,.18,2.85,2.85,0,0,1-1.06-.19,2.44,2.44,0,0,1-.82-.53,2.34,2.34,0,0,1-.54-.82,2.84,2.84,0,0,1-.19-1.06,2.89,2.89,0,0,1,.19-1.06,2.44,2.44,0,0,1,.53-.83,2.41,2.41,0,0,1,.82-.54,2.82,2.82,0,0,1,1.07-.19,2.86,2.86,0,0,1,1,.19,2.29,2.29,0,0,1,.87.59Z"/><path class="cls-3" d="M125.94,34.5h.95v3.73h0a1.39,1.39,0,0,1,.62-.65,2,2,0,0,1,1-.25,2.15,2.15,0,0,1,.69.11,1.55,1.55,0,0,1,.58.34,1.66,1.66,0,0,1,.39.59,2.29,2.29,0,0,1,.15.86v3.2h-.95V39.5a1.65,1.65,0,0,0-.09-.59,1.07,1.07,0,0,0-.25-.4.94.94,0,0,0-.36-.22,1.35,1.35,0,0,0-.43-.07,1.55,1.55,0,0,0-.55.09,1.15,1.15,0,0,0-.44.3,1.41,1.41,0,0,0-.29.52,2.38,2.38,0,0,0-.1.75v2.56h-.95Z"/><path class="cls-3" d="M134.87,35h1.5l2.36,5.63h0L141.12,35h1.5v7.44h-1V36.32h0l-2.51,6.12h-.67l-2.51-6.12h0v6.12h-1Z"/><path class="cls-3" d="M144.24,38.07a2.64,2.64,0,0,1,.92-.55,3.18,3.18,0,0,1,1.05-.18,2.9,2.9,0,0,1,.94.14,1.83,1.83,0,0,1,.65.37,1.45,1.45,0,0,1,.37.53,1.66,1.66,0,0,1,.12.62v2.54c0,.18,0,.34,0,.48s0,.29,0,.42h-.84q0-.38,0-.76h0a1.81,1.81,0,0,1-.75.68,2.35,2.35,0,0,1-1,.2,2.27,2.27,0,0,1-.66-.1,1.59,1.59,0,0,1-.55-.28,1.36,1.36,0,0,1-.37-.47,1.61,1.61,0,0,1,.08-1.46,1.64,1.64,0,0,1,.59-.53,2.85,2.85,0,0,1,.87-.29,6.06,6.06,0,0,1,1.07-.09h.69v-.21a1,1,0,0,0-.29-.72,1.07,1.07,0,0,0-.37-.24,1.42,1.42,0,0,0-.53-.09,2,2,0,0,0-.48.05,2,2,0,0,0-.37.13,1.66,1.66,0,0,0-.3.18l-.26.2Zm2.67,2a6.6,6.6,0,0,0-.69,0,2.69,2.69,0,0,0-.64.14,1.23,1.23,0,0,0-.47.29.66.66,0,0,0-.18.48.68.68,0,0,0,.29.62,1.41,1.41,0,0,0,.78.19,1.5,1.5,0,0,0,.66-.13,1.24,1.24,0,0,0,.44-.34,1.34,1.34,0,0,0,.24-.47,1.84,1.84,0,0,0,.07-.51V40Z"/><path class="cls-3" d="M149.67,37.46h.95v.77h0a1.37,1.37,0,0,1,.25-.36,1.67,1.67,0,0,1,.35-.28,1.83,1.83,0,0,1,.43-.18,1.6,1.6,0,0,1,.46-.07,1.33,1.33,0,0,1,.42.06l0,1-.23-.05-.23,0a1.39,1.39,0,0,0-1.06.39,1.71,1.71,0,0,0-.37,1.21v2.5h-.95Z"/><path class="cls-3" d="M153.56,34.5h.95v5.13l2.14-2.15H158l-2.32,2.26,2.52,2.71h-1.35l-2.31-2.58v2.58h-.95Z"/><path class="cls-3" d="M159.73,40.3a1.24,1.24,0,0,0,.14.59,1.48,1.48,0,0,0,.37.46,1.74,1.74,0,0,0,.54.29,1.93,1.93,0,0,0,.63.1,1.41,1.41,0,0,0,.77-.21,2.48,2.48,0,0,0,.6-.54l.71.55a2.63,2.63,0,0,1-2.21,1,2.73,2.73,0,0,1-1.07-.2,2.32,2.32,0,0,1-.81-.55,2.44,2.44,0,0,1-.51-.83,2.94,2.94,0,0,1-.18-1,2.71,2.71,0,0,1,.19-1,2.57,2.57,0,0,1,.54-.83,2.44,2.44,0,0,1,.81-.55,2.61,2.61,0,0,1,1-.2,2.47,2.47,0,0,1,1.12.23,2.22,2.22,0,0,1,.75.6,2.41,2.41,0,0,1,.43.84,3.52,3.52,0,0,1,.13,1v.34Zm3-.76a2,2,0,0,0-.1-.58,1.27,1.27,0,0,0-.27-.46,1.24,1.24,0,0,0-.45-.3,1.63,1.63,0,0,0-.62-.11,1.52,1.52,0,0,0-.64.13,1.57,1.57,0,0,0-.49.34,1.59,1.59,0,0,0-.31.47,1.28,1.28,0,0,0-.11.51Z"/><path class="cls-3" d="M167.53,38.28h-1.36v2.26c0,.14,0,.28,0,.42a1.08,1.08,0,0,0,.08.37.59.59,0,0,0,.21.26.72.72,0,0,0,.42.1l.35,0a1,1,0,0,0,.33-.12v.86a1.25,1.25,0,0,1-.44.13l-.41,0a1.91,1.91,0,0,1-.85-.15,1,1,0,0,1-.44-.39,1.28,1.28,0,0,1-.17-.54c0-.2,0-.4,0-.6v-2.6h-1.09v-.82h1.09v-1.4h.95v1.4h1.36Z"/></svg>