<?xml version="1.0" encoding="utf-8"?>
<!-- Generator: Adobe Illustrator 15.1.0, SVG Export Plug-In . SVG Version: 6.00 Build 0)  -->
<!DOCTYPE svg PUBLIC "-//W3C//DTD SVG 1.1//EN" "http://www.w3.org/Graphics/SVG/1.1/DTD/svg11.dtd">
<svg version="1.1" id="Ebene_1" xmlns="http://www.w3.org/2000/svg" xmlns:xlink="http://www.w3.org/1999/xlink" x="0px" y="0px"
	 width="343.589px" height="146.154px" viewBox="0 0 343.589 146.154" enable-background="new 0 0 343.589 146.154"
	 xml:space="preserve">
<g>
	<path fill="#2D2D2B" d="M276.091,113.484h2.146c1.41,0,2.654,0.123,3.734,0.369s1.984,0.647,2.711,1.205
		c0.727,0.557,1.277,1.285,1.646,2.188c0.373,0.901,0.557,2.011,0.557,3.329c0,1-0.148,1.921-0.447,2.762
		c-0.301,0.841-0.758,1.564-1.375,2.171c-0.619,0.605-1.398,1.079-2.342,1.42s-2.057,0.512-3.336,0.512h-3.295V113.484z
		 M274.57,128.734h4.602c1.455,0,2.758-0.194,3.908-0.585c1.15-0.39,2.129-0.943,2.928-1.659s1.408-1.581,1.83-2.597
		c0.42-1.017,0.629-2.149,0.629-3.397c0-1.137-0.115-2.133-0.342-2.989c-0.225-0.855-0.553-1.591-0.98-2.204
		c-0.43-0.614-0.949-1.121-1.564-1.523c-0.615-0.401-1.305-0.72-2.08-0.954c-0.771-0.235-1.617-0.399-2.533-0.494
		s-1.895-0.143-2.932-0.143h-3.396L274.57,128.734z M256.98,115.871l8.625,12.863h2.045v-16.546h-1.387v11.523v3.863l-1.521-2.511
		l-8.592-12.876h-2.012v16.546h1.488v-15.022L256.98,115.871z M240.539,115.462l0.873-2.512l0.898,2.512l2.799,7.363h-7.561
		L240.539,115.462z M237.152,123.894h8.34l2.037,4.841h1.6l-6.85-16.546h-1.719l-6.918,16.546h1.578L237.152,123.894z
		 M227.46,121.644l-0.021,5.307c-0.578,0.273-1.199,0.466-1.865,0.58c-0.668,0.111-1.365,0.17-2.104,0.17
		c-1.158,0-2.168-0.17-3.033-0.511c-0.863-0.341-1.584-0.822-2.16-1.443c-0.574-0.621-1.006-1.365-1.287-2.233
		c-0.285-0.867-0.428-1.827-0.428-2.881c0-0.954,0.141-1.88,0.42-2.778c0.281-0.897,0.695-1.691,1.246-2.381
		c0.549-0.689,1.23-1.242,2.049-1.659c0.818-0.416,1.766-0.625,2.842-0.625c0.545,0,1.064,0.042,1.557,0.125
		c0.492,0.084,0.947,0.209,1.359,0.375c0.414,0.167,0.775,0.377,1.09,0.631s0.566,0.555,0.756,0.903l0.637-0.795
		c-0.16-0.425-0.41-0.796-0.75-1.114c-0.342-0.317-0.742-0.583-1.211-0.795c-0.465-0.212-0.979-0.371-1.543-0.478
		s-1.156-0.159-1.77-0.159c-1.295,0-2.451,0.235-3.467,0.705c-1.014,0.47-1.873,1.109-2.572,1.92s-1.238,1.756-1.609,2.836
		c-0.371,1.079-0.557,2.232-0.557,3.46s0.178,2.343,0.529,3.347s0.877,1.865,1.57,2.585c0.691,0.72,1.553,1.277,2.576,1.671
		c1.027,0.394,2.215,0.591,3.562,0.591c0.979,0,1.939-0.083,2.887-0.25s1.846-0.456,2.693-0.863l0.047-7.535h-5.672v1.296H227.46z
		 M201.371,127.439v-6.558h7.639v-1.284h-7.615v-6.113h8.068v-1.296h-9.568v16.546h9.885v-1.295H201.371z M192.486,112.188h-1.535
		v16.546h1.535V112.188z M179.148,124.95l-4.057-12.762h-1.706l-4.136,12.933l-0.784,2.954l-0.818-3.17l-3.534-12.717h-1.614
		l4.818,16.546h2.068l4.84-15.057l4.752,15.057h1.977l4.83-16.546h-1.443l-3.625,12.955l-0.66,2.83L179.148,124.95z
		 M150.004,127.439h-8.091v-15.251h-1.502v16.546h9.593V127.439z M125.743,127.439v-6.558h7.638v-1.284h-7.614v-6.113h8.068v-1.296
		h-9.569v16.546h9.888v-1.295H125.743z M116.858,112.188h-1.534v16.546h1.534V112.188z M97.464,115.871l8.625,12.863h2.046v-16.546
		h-1.386v11.523v3.863l-1.523-2.511l-8.592-12.876h-2.012v16.546h1.488v-15.022L97.464,115.871z M81.021,115.462l0.874-2.512
		l0.899,2.512l2.796,7.363h-7.558L81.021,115.462z M77.635,123.894h8.341l2.035,4.841h1.601l-6.851-16.546h-1.717l-6.92,16.546
		h1.579L77.635,123.894z M58.091,113.484h2.149c1.408,0,2.653,0.123,3.732,0.369c1.081,0.246,1.984,0.647,2.711,1.205
		c0.727,0.557,1.276,1.285,1.647,2.188c0.372,0.901,0.559,2.011,0.559,3.329c0,1-0.151,1.921-0.451,2.762
		c-0.298,0.841-0.758,1.564-1.375,2.171c-0.616,0.605-1.397,1.079-2.341,1.42c-0.942,0.341-2.055,0.512-3.335,0.512h-3.295V113.484z
		 M56.569,128.734h4.603c1.455,0,2.758-0.194,3.909-0.585c1.151-0.39,2.126-0.943,2.925-1.659c0.8-0.716,1.41-1.581,1.831-2.597
		c0.42-1.017,0.631-2.149,0.631-3.397c0-1.137-0.115-2.133-0.342-2.989c-0.227-0.855-0.555-1.591-0.983-2.204
		c-0.427-0.614-0.949-1.121-1.562-1.523c-0.614-0.401-1.307-0.72-2.081-0.954c-0.771-0.235-1.617-0.399-2.533-0.494
		c-0.917-0.095-1.895-0.143-2.933-0.143h-3.398L56.569,128.734z"/>
	<path fill="#2D2D2B" d="M317.083,86.018c0.342-0.833,0.807-1.549,1.398-2.146c0.59-0.599,1.275-1.062,2.061-1.396
		c0.783-0.333,1.621-0.5,2.512-0.5c0.875,0,1.699,0.167,2.479,0.5c0.779,0.333,1.461,0.797,2.051,1.396
		c0.592,0.597,1.057,1.312,1.398,2.146c0.338,0.833,0.51,1.75,0.51,2.75c0,1.013-0.172,1.938-0.51,2.771
		c-0.342,0.833-0.807,1.545-1.398,2.134c-0.59,0.591-1.271,1.049-2.051,1.375c-0.779,0.328-1.604,0.491-2.479,0.491
		c-0.891,0-1.729-0.163-2.512-0.491c-0.785-0.326-1.471-0.784-2.061-1.375c-0.592-0.589-1.057-1.301-1.398-2.134
		c-0.34-0.833-0.508-1.758-0.508-2.771C316.576,87.768,316.744,86.851,317.083,86.018 M312.011,93.36
		c0.625,1.398,1.48,2.597,2.561,3.606c1.086,1.006,2.354,1.79,3.803,2.353c1.451,0.564,3.012,0.845,4.68,0.845
		c1.652,0,3.203-0.281,4.654-0.845c1.453-0.563,2.721-1.347,3.803-2.353c1.084-1.01,1.938-2.208,2.562-3.606
		c0.625-1.396,0.939-2.926,0.939-4.593c0-1.667-0.314-3.197-0.939-4.593c-0.625-1.398-1.479-2.599-2.562-3.604
		c-1.082-1.009-2.354-1.792-3.812-2.354c-1.457-0.562-3.02-0.845-4.688-0.845c-1.65,0-3.203,0.282-4.654,0.845
		s-2.717,1.345-3.793,2.354c-1.076,1.006-1.928,2.207-2.553,3.604c-0.625,1.396-0.936,2.926-0.936,4.593
		C311.076,90.435,311.386,91.965,312.011,93.36 M296.636,99.643h11.689V95.58h-3.105V77.892h-8.793v4.042h3.375V95.58h-3.166V99.643
		z M299.761,74.163h5.459v-4.812h-5.459V74.163z M274.761,85.893c0.291-0.835,0.689-1.538,1.186-2.114
		c0.502-0.576,1.088-1.015,1.76-1.314c0.676-0.297,1.395-0.447,2.158-0.447c0.889,0,1.67,0.191,2.344,0.574
		c0.674,0.382,1.23,0.892,1.666,1.53c0.438,0.64,0.768,1.372,0.99,2.197c0.223,0.828,0.334,1.686,0.334,2.574
		c0,1.167-0.154,2.17-0.457,3.01c-0.307,0.843-0.717,1.532-1.219,2.074c-0.508,0.542-1.096,0.945-1.762,1.208
		c-0.668,0.263-1.355,0.396-2.062,0.396c-0.793,0-1.52-0.159-2.18-0.479c-0.658-0.318-1.225-0.778-1.695-1.375
		c-0.475-0.599-0.844-1.316-1.105-2.157c-0.266-0.839-0.396-1.773-0.396-2.801C274.322,87.684,274.468,86.726,274.761,85.893
		 M269.531,93.381c0.445,1.398,1.078,2.599,1.908,3.604c0.824,1.009,1.824,1.79,3,2.345c1.174,0.555,2.48,0.833,3.924,0.833
		c0.682,0,1.303-0.059,1.867-0.178c0.561-0.118,1.076-0.269,1.541-0.457c0.467-0.189,0.879-0.403,1.24-0.646
		c0.359-0.242,0.682-0.492,0.957-0.74c0.654-0.597,1.16-1.277,1.52-2.042h0.105c-0.025,0.083-0.057,0.172-0.082,0.269
		c-0.043,0.168-0.062,0.403-0.062,0.71v0.25c0,0.318,0.053,0.617,0.154,0.896c0.105,0.279,0.271,0.521,0.502,0.728
		c0.229,0.21,0.516,0.377,0.863,0.502c0.35,0.125,0.77,0.188,1.27,0.188h5.107V95.58h-1.959c-0.625,0-0.938-0.312-0.938-0.938
		V69.351h-8.75v4.042h3.373v5.521c0,0.235,0.004,0.445,0.012,0.625c0.006,0.18,0.018,0.339,0.031,0.479
		c0.014,0.153,0.029,0.292,0.039,0.417h-0.082c-0.359-0.557-0.826-1.062-1.395-1.521c-0.484-0.388-1.133-0.744-1.936-1.062
		c-0.807-0.32-1.787-0.479-2.939-0.479c-1.473,0-2.82,0.271-4.041,0.812c-1.223,0.542-2.271,1.307-3.146,2.292
		c-0.875,0.987-1.551,2.184-2.031,3.593c-0.479,1.411-0.719,2.978-0.719,4.699C268.865,90.448,269.085,91.985,269.531,93.381
		 M242.759,91.872c0,1.486,0.166,2.754,0.5,3.803c0.334,1.048,0.809,1.906,1.428,2.572c0.617,0.667,1.367,1.153,2.25,1.458
		c0.883,0.307,1.863,0.458,2.947,0.458c0.902,0,1.725-0.101,2.459-0.301c0.734-0.203,1.393-0.46,1.969-0.773s1.074-0.659,1.5-1.042
		c0.422-0.381,0.777-0.75,1.061-1.103c0.287-0.356,0.504-0.674,0.656-0.958c0.156-0.286,0.252-0.49,0.295-0.615h0.084
		c-0.018,0.097-0.023,0.203-0.023,0.312c-0.012,0.097-0.02,0.207-0.02,0.322v0.386v0.813c0,0.776,0.229,1.378,0.688,1.801
		c0.457,0.424,1.166,0.637,2.125,0.637h5.375v-4.021h-2.084c-0.625,0-0.938-0.312-0.938-0.938V77.892h-8.752v4.042h3.336v5.625
		c0,0.987-0.139,1.943-0.42,2.875c-0.275,0.932-0.67,1.761-1.186,2.49c-0.514,0.729-1.146,1.311-1.893,1.748
		c-0.752,0.439-1.594,0.657-2.523,0.657c-0.68,0-1.242-0.108-1.686-0.322c-0.447-0.216-0.795-0.515-1.053-0.896
		c-0.258-0.382-0.436-0.845-0.533-1.386c-0.096-0.542-0.146-1.14-0.146-1.792V77.892h-8.791v4.042h3.375V91.872z M226.384,91.664
		c0,1.208,0.15,2.254,0.457,3.134c0.305,0.883,0.709,1.625,1.209,2.231c0.5,0.602,1.072,1.089,1.719,1.458
		c0.645,0.367,1.305,0.651,1.979,0.852c0.674,0.203,1.334,0.337,1.979,0.407c0.646,0.068,1.227,0.104,1.742,0.104
		c0.512,0,0.916-0.021,1.207-0.062c0.168-0.013,0.318-0.036,0.459-0.062v-4.438c-0.084,0.013-0.174,0.021-0.271,0.021
		c-0.082,0.015-0.184,0.021-0.303,0.021h-0.404c-0.389,0-0.834-0.045-1.336-0.134c-0.5-0.091-0.973-0.286-1.426-0.583
		c-0.449-0.299-0.83-0.725-1.135-1.282c-0.307-0.555-0.459-1.297-0.459-2.229v-9.167h4.939v-4.042H231.8v-5.938h-5.25v5.938h-3.5
		v4.042h3.334V91.664z M198.841,89.872v3.458c0,1.139,0.305,2.135,0.916,2.991c0.611,0.853,1.41,1.564,2.398,2.135
		c0.984,0.568,2.1,0.998,3.344,1.28c1.24,0.286,2.494,0.428,3.76,0.428c1.43,0,2.801-0.182,4.113-0.542
		c1.314-0.362,2.473-0.917,3.48-1.667c1.006-0.75,1.812-1.695,2.416-2.833s0.906-2.479,0.906-4.021c0-1.417-0.262-2.612-0.779-3.583
		c-0.523-0.972-1.207-1.797-2.055-2.479c-0.846-0.68-1.812-1.252-2.896-1.72c-1.082-0.464-2.186-0.897-3.311-1.301
		c-0.793-0.292-1.547-0.583-2.262-0.875c-0.715-0.292-1.352-0.625-1.906-1c-0.557-0.375-0.996-0.805-1.322-1.292
		c-0.328-0.485-0.492-1.078-0.492-1.771c0-0.583,0.123-1.083,0.365-1.5c0.244-0.417,0.57-0.759,0.98-1.032
		c0.408-0.271,0.887-0.47,1.438-0.604c0.549-0.131,1.129-0.199,1.74-0.199c0.568,0,1.125,0.053,1.666,0.157
		c0.543,0.106,1.029,0.256,1.459,0.449c0.432,0.193,0.775,0.438,1.031,0.729c0.256,0.292,0.385,0.633,0.385,1.021v2.042h5.064
		v-3.979c0-0.875-0.275-1.646-0.824-2.312c-0.551-0.667-1.273-1.222-2.176-1.667c-0.904-0.445-1.932-0.78-3.084-1.009
		c-1.154-0.231-2.328-0.345-3.521-0.345c-1.291,0-2.549,0.153-3.771,0.458c-1.221,0.305-2.305,0.799-3.252,1.479
		c-0.943,0.68-1.701,1.555-2.27,2.625c-0.568,1.068-0.854,2.368-0.854,3.896c0,1.362,0.229,2.51,0.688,3.447
		c0.459,0.939,1.061,1.74,1.812,2.407c0.75,0.667,1.604,1.225,2.562,1.678c0.959,0.451,1.943,0.87,2.959,1.26
		c0.875,0.333,1.727,0.659,2.562,0.979c0.836,0.32,1.578,0.682,2.229,1.083c0.652,0.403,1.176,0.871,1.572,1.405
		c0.398,0.536,0.596,1.186,0.596,1.949c0,0.611-0.129,1.147-0.387,1.613c-0.258,0.466-0.617,0.86-1.084,1.178
		c-0.465,0.32-1.02,0.561-1.666,0.72c-0.645,0.159-1.352,0.239-2.113,0.239c-0.709,0-1.387-0.068-2.033-0.208
		s-1.217-0.339-1.709-0.604s-0.881-0.591-1.164-0.979c-0.285-0.388-0.428-0.826-0.428-1.312v-2.271H198.841z M169.486,86.33
		c0.125-0.71,0.339-1.358,0.646-1.949c0.306-0.589,0.683-1.093,1.135-1.509c0.453-0.417,0.97-0.741,1.555-0.97
		c0.58-0.227,1.219-0.343,1.915-0.343c0.586,0,1.125,0.108,1.627,0.322c0.496,0.216,0.939,0.53,1.322,0.939s0.682,0.909,0.906,1.498
		c0.223,0.593,0.346,1.262,0.375,2.012H169.486z M164.632,93.154c0.542,1.38,1.314,2.593,2.324,3.634
		c1.006,1.042,2.232,1.866,3.676,2.468c1.443,0.606,3.069,0.907,4.875,0.907c1.375,0,2.6-0.157,3.676-0.468
		c1.078-0.312,1.998-0.665,2.764-1.053c0.887-0.445,1.67-0.951,2.352-1.521l-2.105-3.833c-0.553,0.432-1.164,0.812-1.832,1.146
		c-0.584,0.292-1.252,0.555-2.008,0.792c-0.758,0.237-1.58,0.354-2.471,0.354c-0.82,0-1.605-0.128-2.354-0.384
		c-0.75-0.257-1.423-0.636-2.01-1.136c-0.591-0.5-1.078-1.129-1.458-1.885c-0.383-0.757-0.618-1.636-0.701-2.636h15.064
		c0.014-0.237,0.035-0.466,0.062-0.688c0.014-0.195,0.027-0.396,0.045-0.604c0.012-0.208,0.018-0.388,0.018-0.542
		c0-1.445-0.211-2.793-0.633-4.053c-0.428-1.256-1.047-2.351-1.867-3.282c-0.816-0.928-1.828-1.661-3.031-2.197
		c-1.199-0.532-2.588-0.801-4.158-0.801c-1.625,0-3.113,0.278-4.465,0.833c-1.356,0.557-2.52,1.337-3.49,2.345
		c-0.974,1.005-1.729,2.206-2.271,3.602c-0.541,1.398-0.812,2.936-0.812,4.616C163.819,90.308,164.091,91.771,164.632,93.154
		 M137.131,81.934h2.646l6.625,17.709h6.229l6.646-17.709h2.604v-4.042h-10.438v4.042h2.459l-3.792,10.75
		c-0.099,0.276-0.179,0.557-0.24,0.833c-0.062,0.279-0.114,0.536-0.157,0.771c-0.054,0.263-0.097,0.526-0.124,0.79h-0.124
		c-0.029-0.264-0.07-0.527-0.126-0.79c-0.041-0.235-0.093-0.492-0.157-0.771c-0.062-0.276-0.149-0.557-0.26-0.833l-3.749-10.75
		h2.417v-4.042h-10.46V81.934z M124.068,99.643h11.688V95.58h-3.103V77.892h-8.794v4.042h3.377V95.58h-3.168V99.643z
		 M127.193,74.163h5.458v-4.812h-5.458V74.163z M110.046,91.664c0,1.208,0.153,2.254,0.46,3.134
		c0.305,0.883,0.708,1.625,1.209,2.231c0.498,0.602,1.072,1.089,1.718,1.458c0.646,0.367,1.305,0.651,1.979,0.852
		c0.675,0.203,1.334,0.337,1.979,0.407c0.646,0.068,1.226,0.104,1.74,0.104c0.514,0,0.917-0.021,1.208-0.062
		c0.167-0.013,0.32-0.036,0.457-0.062v-4.438c-0.083,0.013-0.172,0.021-0.269,0.021c-0.083,0.015-0.185,0.021-0.303,0.021h-0.407
		c-0.388,0-0.832-0.045-1.333-0.134c-0.5-0.091-0.975-0.286-1.427-0.583c-0.451-0.299-0.83-0.725-1.135-1.282
		c-0.307-0.555-0.46-1.297-0.46-2.229v-9.167h4.938v-4.042h-4.938v-5.938h-5.25v5.938h-3.498v4.042h3.331V91.664z M89.089,91.717
		c0.264-0.398,0.607-0.729,1.029-1.002c0.426-0.271,0.899-0.487,1.428-0.644c0.528-0.159,1.063-0.282,1.604-0.366
		c0.544-0.083,1.062-0.14,1.563-0.167c0.5-0.027,0.932-0.042,1.292-0.042H96.9v0.708c0,0.682-0.124,1.371-0.374,2.074
		c-0.25,0.701-0.598,1.331-1.041,1.894c-0.446,0.562-0.978,1.025-1.594,1.387c-0.62,0.362-1.297,0.542-2.033,0.542
		c-0.498,0-0.946-0.08-1.344-0.24c-0.396-0.159-0.728-0.374-1-0.646c-0.271-0.269-0.477-0.585-0.614-0.947
		c-0.139-0.361-0.207-0.744-0.207-1.146C88.693,92.58,88.825,92.112,89.089,91.717 M83.839,96.444
		c0.401,0.828,0.937,1.519,1.603,2.074c0.668,0.555,1.434,0.968,2.302,1.239c0.868,0.272,1.768,0.407,2.698,0.407
		c0.625,0,1.204-0.059,1.739-0.178c0.533-0.118,1.024-0.273,1.469-0.468c0.444-0.195,0.839-0.417,1.187-0.667
		s0.661-0.507,0.938-0.771c0.639-0.612,1.153-1.312,1.542-2.104H97.4c-0.028,0.083-0.048,0.182-0.062,0.292
		c-0.042,0.195-0.064,0.466-0.064,0.813v0.25c0,0.318,0.054,0.617,0.157,0.896c0.105,0.279,0.265,0.521,0.479,0.728
		c0.215,0.21,0.5,0.377,0.854,0.502c0.355,0.125,0.781,0.188,1.282,0.188h5.126V95.58h-1.959c-0.624,0-0.938-0.312-0.938-0.938
		v-8.688c0-2.792-0.761-4.919-2.28-6.385c-1.521-1.468-3.748-2.199-6.679-2.199c-1.318,0-2.51,0.142-3.572,0.428
		c-1.062,0.284-1.969,0.593-2.719,0.926c-0.875,0.388-1.652,0.833-2.333,1.333l2,3.75c0.57-0.388,1.189-0.737,1.854-1.042
		c0.57-0.264,1.221-0.504,1.959-0.72c0.736-0.214,1.514-0.322,2.332-0.322c0.571,0,1.099,0.066,1.586,0.199
		c0.484,0.13,0.909,0.343,1.27,0.634c0.361,0.292,0.646,0.678,0.854,1.157c0.209,0.479,0.312,1.064,0.312,1.759v0.729h-1.373
		c-0.584,0-1.294,0.028-2.126,0.083c-0.834,0.055-1.703,0.17-2.604,0.343c-0.903,0.174-1.806,0.424-2.708,0.75
		c-0.903,0.328-1.708,0.761-2.418,1.303c-0.708,0.542-1.284,1.208-1.729,2c-0.444,0.792-0.667,1.744-0.667,2.854
		C83.234,94.65,83.436,95.618,83.839,96.444 M65.4,86.33c0.124-0.71,0.34-1.358,0.646-1.949c0.305-0.589,0.683-1.093,1.134-1.509
		c0.453-0.417,0.97-0.741,1.554-0.97c0.581-0.227,1.222-0.343,1.916-0.343c0.584,0,1.125,0.108,1.626,0.322
		c0.5,0.216,0.94,0.53,1.322,0.939c0.382,0.409,0.683,0.909,0.906,1.498c0.222,0.593,0.347,1.262,0.374,2.012H65.4z M60.545,93.154
		c0.542,1.38,1.315,2.593,2.324,3.634c1.006,1.042,2.232,1.866,3.677,2.468c1.442,0.606,3.068,0.907,4.873,0.907
		c1.375,0,2.602-0.157,3.677-0.468c1.077-0.312,1.998-0.665,2.762-1.053c0.888-0.445,1.673-0.951,2.353-1.521l-2.103-3.833
		c-0.557,0.432-1.167,0.812-1.834,1.146c-0.584,0.292-1.253,0.555-2.01,0.792c-0.759,0.237-1.581,0.354-2.469,0.354
		c-0.821,0-1.606-0.128-2.355-0.384c-0.75-0.257-1.421-0.636-2.01-1.136c-0.59-0.5-1.077-1.129-1.458-1.885
		c-0.382-0.757-0.615-1.636-0.699-2.636h15.064c0.013-0.237,0.035-0.466,0.062-0.688c0.013-0.195,0.026-0.396,0.042-0.604
		c0.013-0.208,0.019-0.388,0.019-0.542c0-1.445-0.211-2.793-0.635-4.053c-0.424-1.256-1.044-2.351-1.865-3.282
		c-0.818-0.928-1.829-1.661-3.031-2.197c-1.2-0.532-2.587-0.801-4.157-0.801c-1.625,0-3.115,0.278-4.468,0.833
		c-1.354,0.557-2.518,1.337-3.49,2.345c-0.974,1.005-1.729,2.206-2.271,3.602c-0.541,1.398-0.812,2.936-0.812,4.616
		C59.733,90.308,60.005,91.771,60.545,93.154 M41.211,99.643h11.687V95.58h-3.103v-4.729c0-1.013,0.124-2,0.374-2.958
		c0.251-0.958,0.636-1.805,1.156-2.542c0.521-0.736,1.181-1.326,1.98-1.771c0.799-0.443,1.745-0.667,2.843-0.667
		c0.194,0,0.373,0.004,0.532,0.01c0.159,0.007,0.295,0.017,0.407,0.03c0.138,0.017,0.263,0.03,0.374,0.043v-5.333
		c-0.083-0.013-0.181-0.026-0.291-0.043c-0.1-0.013-0.206-0.023-0.324-0.03c-0.119-0.006-0.239-0.01-0.365-0.01
		c-0.834,0-1.614,0.146-2.343,0.438c-0.729,0.292-1.391,0.688-1.98,1.188c-0.59,0.5-1.104,1.091-1.542,1.771
		c-0.437,0.68-0.782,1.409-1.032,2.188h-0.083c0.015-0.11,0.029-0.236,0.042-0.375c0.014-0.111,0.024-0.25,0.031-0.417
		c0.008-0.167,0.01-0.354,0.01-0.562v-1.292c0-0.917-0.243-1.583-0.729-2c-0.485-0.417-1.214-0.625-2.186-0.625h-5.667v4.042h2.438
		c0.291,0,0.52,0.08,0.687,0.241c0.167,0.159,0.25,0.392,0.25,0.697V95.58h-3.167V99.643z M9.825,88.61
		c0.355,1.354,0.865,2.616,1.532,3.782c0.665,1.167,1.472,2.229,2.417,3.188c0.944,0.958,2.003,1.779,3.176,2.458
		c1.174,0.682,2.448,1.205,3.823,1.574c1.375,0.367,2.826,0.551,4.354,0.551c0.694,0,1.475-0.042,2.345-0.125
		c0.866-0.083,1.741-0.224,2.624-0.417c0.882-0.195,1.743-0.445,2.583-0.75c0.839-0.305,1.59-0.68,2.249-1.127
		c0.66-0.443,1.189-0.958,1.584-1.551c0.396-0.589,0.594-1.259,0.594-2.009v-4.146h-5.062v2.354c0,0.403-0.122,0.754-0.364,1.051
		c-0.245,0.299-0.557,0.561-0.938,0.782c-0.383,0.224-0.817,0.405-1.302,0.553c-0.487,0.146-0.974,0.263-1.458,0.352
		c-0.487,0.091-0.952,0.153-1.396,0.188c-0.444,0.036-0.821,0.053-1.125,0.053c-1.486,0-2.864-0.267-4.134-0.803
		c-1.273-0.532-2.373-1.292-3.303-2.271c-0.931-0.979-1.656-2.159-2.178-3.542c-0.52-1.381-0.779-2.926-0.779-4.635
		c0-1.597,0.252-3.045,0.759-4.345c0.507-1.297,1.208-2.403,2.105-3.312c0.896-0.909,1.96-1.61,3.198-2.104
		c1.235-0.492,2.583-0.739,4.042-0.739c0.624,0,1.311,0.053,2.062,0.157c0.75,0.103,1.451,0.273,2.104,0.51
		c0.653,0.237,1.201,0.549,1.646,0.938c0.444,0.39,0.665,0.86,0.665,1.417v2.353h5.085v-4.103c0-0.792-0.209-1.492-0.627-2.104
		c-0.417-0.612-0.958-1.142-1.625-1.593c-0.665-0.453-1.425-0.826-2.281-1.127c-0.853-0.297-1.719-0.542-2.593-0.729
		c-0.875-0.186-1.723-0.318-2.542-0.396c-0.819-0.076-1.534-0.114-2.145-0.114c-1.459,0-2.863,0.178-4.209,0.53
		c-1.348,0.356-2.597,0.858-3.75,1.511c-1.152,0.653-2.202,1.445-3.146,2.375c-0.945,0.932-1.75,1.97-2.417,3.116
		c-0.668,1.144-1.185,2.396-1.552,3.749c-0.369,1.354-0.552,2.776-0.552,4.261C9.294,85.843,9.47,87.258,9.825,88.61"/>
	<path fill="#E53212" d="M180.25,58.917V10.413H163.66v48.503c2.729,0.297,5.487,0.501,8.296,0.501
		C174.765,59.418,177.519,59.214,180.25,58.917"/>
	<path fill="#F29100" d="M158.075,58.094V10.413h-16.589v42.563C146.732,55.291,152.286,57.017,158.075,58.094"/>
	<path fill="#B51F1F" d="M202.423,52.977V10.413h-16.59v47.679C191.625,57.017,197.177,55.289,202.423,52.977"/>
</g>
</svg>
